<svg xmlns="http://www.w3.org/2000/svg" xmlns:xlink="http://www.w3.org/1999/xlink" width="190" height="220"><defs><path id="a" d="M-55-40h300v300H-55z"/></defs><clipPath id="b"><use xlink:href="#a" overflow="visible"/></clipPath><path clip-path="url(#b)" fill="#EDF1F9" d="M15 195h160c2.998 0 5-2.002 5-5V15c0-3-2.002-5-5-5H15c-3 0-5 2-5 5v175c0 2.998 2 5 5 5"/><path clip-path="url(#b)" fill="#005163" d="M175 0H15C6.499 0 0 6.499 0 15v175c0 8.501 6.499 15 15 15v10c0 2.998 2 5 5 5h150c2.998 0 5-2.002 5-5v-10c8.501 0 15-6.499 15-15V15c0-8.501-6.499-15-15-15m-10 210H25v-5h140v5zm15-20c0 2.998-2.002 5-5 5H15c-3 0-5-2.002-5-5V15c0-3 2-5 5-5h160c2.998 0 5 2 5 5v175z"/><path clip-path="url(#b)" fill="#014463" d="M25 25c2.759 0 5 2.241 5 5s-2.241 5-5 5-5-2.241-5-5 2.241-5 5-5M45 25c2.759 0 5 2.241 5 5s-2.241 5-5 5-5-2.241-5-5 2.241-5 5-5M145 25c2.759 0 5 2.241 5 5s-2.241 5-5 5-5-2.241-5-5 2.241-5 5-5M165 25c2.759 0 5 2.241 5 5s-2.241 5-5 5-5-2.241-5-5 2.241-5 5-5"/><path clip-path="url(#b)" fill="#7DD8FF" d="M30 60h130v115H30z"/><path clip-path="url(#b)" fill="#005163" d="M165 185H25c-3 0-5-2.002-5-5V55c0-3 2-5 5-5h140c2.998 0 5 2 5 5v125c0 2.998-2.002 5-5 5M30 175h130V60H30v115z"/><path clip-path="url(#b)" fill="#90CEF1" d="M125 120c11.045 0 20 8.955 20 20s-8.955 20-20 20-20-8.955-20-20 8.955-20 20-20"/><path clip-path="url(#b)" fill="#3689C9" d="M125 170c-16.499 0-30-13.501-30-30s13.501-30 30-30 30 13.501 30 30-13.501 30-30 30m0-50c-11.001 0-20 8.999-20 20s8.999 20 20 20 20-8.999 20-20-8.999-20-20-20"/><path clip-path="url(#b)" fill="#409EFF" d="M95 90c-3 0-5-2-5-5V75c0-3 2-5 5-5 2.998 0 5 2 5 5v10c0 3-2.002 5-5 5M120 90c-2.002 0-3.501-1.001-4.502-3l-5-10c-.996-2.5 0-5.5 2.002-6.499 2.5-1.001 5.498 0 6.499 2l5 10c1.001 2.5 0 5.5-1.997 6.499-.503 1-1.001 1-2.002 1M70 90c-.5 0-1.499 0-2-.5-2.5-.999-3.501-3.999-2-6.499l5-10c1-2.501 4-3.501 6.5-2C80 72 81.001 75 79.5 77.5l-5 10C73.501 88.999 72 90 70 90"/><path clip-path="url(#b)" fill="#4C9CD6" d="M30 60h130v5H30z"/><path clip-path="url(#b)" fill="#3689C9" d="M30 160h130v10H30z"/><path clip-path="url(#b)" fill="#48A8E5" d="M141.499 128.501c-3.501-5-9.502-8.501-16.499-8.501-2.5 0-4.502.498-7.002 1.001-7.5 2.998-12.998 10-12.998 18.999 0 11.001 8.999 20 20 20h1.001c2.5-4.502 3.999-9.502 3.999-15 0-7.002-2.5-13.501-6.499-18.999 1.997-.503 4.497-1.001 6.499-1.001 3.999 0 7.998 1.499 11.499 3.501"/><path clip-path="url(#b)" fill="#95DCF1" d="M95 120c11.045 0 20 8.955 20 20s-8.955 20-20 20-20-8.955-20-20 8.955-20 20-20"/><path clip-path="url(#b)" fill="#3689C9" d="M95 170c-16.499 0-30-13.501-30-30s13.501-30 30-30 30 13.501 30 30-13.501 30-30 30m0-50c-11.001 0-20 8.999-20 20s8.999 20 20 20 20-8.999 20-20-8.999-20-20-20"/><path clip-path="url(#b)" fill="#48A8E5" d="M111.499 128.501c-3.501-5-9.502-8.501-16.499-8.501-2.5 0-4.502.498-7.002 1.001C80.498 123.999 75 131.001 75 140c0 11.001 8.999 20 20 20h1.001c2.5-4.502 3.999-9.502 3.999-15 0-7.002-2.5-13.501-6.501-18.999 2-.503 4.5-1.001 6.501-1.001 3.999 0 7.998 1.499 11.499 3.501"/><path clip-path="url(#b)" fill="#90CEF1" d="M65 120c11.045 0 20 8.955 20 20s-8.955 20-20 20-20-8.955-20-20 8.955-20 20-20"/><path clip-path="url(#b)" fill="#3689C9" d="M65 170c-16.499 0-30-13.501-30-30s13.501-30 30-30 30 13.501 30 30-13.501 30-30 30m0-50c-11.001 0-20 8.999-20 20s8.999 20 20 20 20-8.999 20-20-8.999-20-20-20"/><path clip-path="url(#b)" fill="#48A8E5" d="M50 145c0-11.001 8.999-20 20-20 3.999 0 8 1.499 11.499 3.501C78 123.501 72 120 65 120c-11.001 0-20 8.999-20 20 0 7.002 3.501 12.998 8.501 16.499C51.499 152.998 50 148.999 50 145"/><path clip-path="url(#b)" fill="#409EFF" d="M60 95c2.759 0 5 2.241 5 5s-2.241 5-5 5-5-2.241-5-5 2.241-5 5-5M95 95c2.759 0 5 2.241 5 5s-2.241 5-5 5-5-2.241-5-5 2.241-5 5-5M130 95c2.759 0 5 2.241 5 5s-2.241 5-5 5-5-2.241-5-5 2.241-5 5-5"/><path clip-path="url(#b)" fill="#EBE1B6" d="M15 195h160c2.998 0 5-2.002 5-5V15c0-3-2.002-5-5-5v175c0 2.998-2.002 5-5 5H10c0 2.998 2 5 5 5"/><path clip-path="url(#b)" fill="#014463" d="M115 35H75c-3 0-5-2-5-5s2-5 5-5h40c2.998 0 5 2 5 5s-2.002 5-5 5"/></svg>