<?xml version="1.0" encoding="UTF-8"?>
<!DOCTYPE svg PUBLIC "-//W3C//DTD SVG 1.1//EN" "http://www.w3.org/Graphics/SVG/1.1/DTD/svg11.dtd">
<svg version="1.1" xmlns="http://www.w3.org/2000/svg" xmlns:xlink="http://www.w3.org/1999/xlink" x="0" y="0" width="549" height="446" viewBox="0, 0, 549, 446">
  <g id="Layer_1">
    <g>
      <path d="M451.365,434.046 C451.365,431.285 451.365,419.759 451.365,416.379 C451.365,413 466.654,387.597 497.61,384.373 C528.566,381.151 543.474,396.057 546.911,407.743 L546.911,435.546 C546.911,435.546 546.911,439.573 539.269,439.573 C531.624,439.573 467.449,439.573 462.449,439.573 C457.449,439.573 451.365,438.046 451.365,434.046 z M263.078,208.773 L269.52,281.405 C269.52,281.405 311.336,280.539 355.97,245.222 C355.97,245.222 337.77,195.822 331.053,180.439 C324.337,165.056 310.036,151.838 310.036,151.838 M261.908,195.573 L262.243,199.362 M273.725,281.618 C273.725,281.618 274.056,361.932 269.736,373.272 C267.136,380.097 256.573,383.672 256.573,383.672 M288.21,356.606 C287.269,360.243 286.24,363.993 285.119,367.855 C285.119,367.855 282.521,379.121 282.953,383.455 C283.386,387.789 285.12,394.289 282.953,396.239 C280.786,398.189 272.011,396.239 261.448,397.647 M297.646,276.493 C297.646,276.493 300.493,308.387 290.104,355.939 L272.286,357.858 M261.448,397.647 C259.986,386.11 254.461,381.235 254.461,381.235 C254.461,381.235 233.336,389.36 229.599,394.884 C225.861,400.41 230.573,402.522 235.448,402.522 C240.323,402.522 280.461,401.059 289.561,399.597 C289.561,399.597 297.198,396.347 283.711,394.559 M390.286,337.546 C399.439,348.993 406.548,358.521 407.536,361.356 C409.242,366.252 410.745,374.963 410.745,374.963 M328.398,263.259 C328.398,263.259 346.426,288.488 349.432,291.244 C351.348,293 372.88,318.241 388.956,338.346 C388.956,338.346 397.586,332.058 401.161,325.233 M355.97,245.222 C355.97,245.222 362.653,264.388 364.909,270.151 C367.165,275.913 373.288,281.945 378.939,289.692 C395.493,312.382 408.101,338.25 414.222,347.792 C419.209,355.567 421.401,352.689 424.436,355.072 C427.47,357.455 424.436,371.972 424.436,371.972 M427.523,371.972 C427.523,371.972 412.411,371.322 406.236,378.797 C406.236,378.797 407.706,394.74 411.769,401.078 C415.831,407.415 423.141,404.406 426.873,396.184 C429.169,391.128 434.511,356.372 434.023,349.222 C433.536,342.072 424.599,341.91 419.724,352.472 M78.529,396.984 L113.371,356.255 L122.314,363.798 L93.42,397.577 M120.327,362.123 L115.358,357.931 L194.483,264.129 L199.452,268.321 L120.327,362.123 z M270.932,191.46 C264.079,193.269 259.419,197.043 256.453,200.409 M290.698,193.568 L292.503,188.846 C290.016,188.86 286.089,189.052 280.534,189.795 M286.909,183.886 C293.408,183.394 296.403,183.797 296.591,183.823 C297.374,183.935 298.063,184.397 298.464,185.079 C298.865,185.759 298.935,186.587 298.652,187.326 L296.7,192.432 M248.58,202.492 C251.11,198.121 257.761,189.105 270.799,186.138 M227.07,238.02 L200.426,269.182 L193.51,263.268 L221.474,230.561 M225.913,225.37 L240.089,208.791 C240.628,208.16 245.593,202.546 252.82,201.207 L300.202,191.686 L301.995,200.608 L254.545,210.142 C250.396,210.911 247.041,214.664 247.009,214.701 L237.475,225.852 M247.036,150.921 L243.898,170.147 C243.898,170.147 243.898,180.059 237.724,208.335 C237.724,208.335 236.701,212.036 234.799,214.509 C231.549,218.735 226.349,221.822 226.349,221.822 C226.349,221.822 225.536,227.672 224.886,229.947 C224.236,232.222 221.148,233.684 221.474,232.384 C221.799,231.085 220.986,221.009 221.474,219.059 C221.961,217.11 227.702,211.422 227.702,211.422 C227.702,211.422 230.086,177.188 230.303,169.172 C230.519,161.186 228.515,114.464 229.002,110.889 C229.49,107.314 239.836,96.697 239.836,96.697 M224.962,229.923 C224.962,229.923 226.128,226.696 227.331,226.608 C228.534,226.519 228.884,228.088 228.884,228.088 C228.884,228.088 234.868,220.504 236.024,221.083 C237.181,221.661 237.933,228.008 237.611,228.897 C237.014,230.565 232.2,235.924 231.097,236.77 C229.514,237.983 227.449,238.986 226.301,237.494 C225.518,236.475 224.724,230.585 224.724,230.585 M245.606,86.102 C245.606,86.102 236.661,88.188 226.56,83.599 C219.493,80.389 206.349,62.42 206.349,62.42 M256.295,44.794 C256.295,44.794 258.962,35.857 264.026,37.063 C270.271,38.55 267.892,53.269 260.606,58.473 C259.626,64.849 256.99,70.877 254.419,75.181 M204.013,65.361 C204.279,66.431 204.63,66.86 205.991,68.339 C209.811,72.482 214.441,72.888 214.441,72.888 M256.231,44.18 C252.536,35.921 233.911,27.045 233.911,27.045 C233.911,27.045 210.161,37.421 206.536,62.67 M254.798,74.612 C254.798,74.612 258.787,84.48 261.099,86.358 M245.578,86.212 C245.578,86.212 250.724,97.382 250.724,100.272 L256.736,109.697 M257.224,79.147 C257.224,79.147 260.961,77.522 262.586,78.009 C264.211,78.497 267.786,82.884 267.786,82.884 C267.786,82.884 274.773,101.41 274.448,104.009 C274.448,104.009 263.886,96.372 260.148,96.697" fill-opacity="0" stroke="#493B34" stroke-width="4" stroke-linecap="round" stroke-linejoin="round"/>
      <path d="M245.161,86.795 C245.161,86.795 239.674,94.747 239.836,96.697 C239.998,98.647 242.111,113.272 242.111,113.272 L246.498,101.41 M242.111,98.647 C242.111,98.647 249.586,101.735 256.736,109.697 C256.248,105.96 259.986,91.822 260.961,89.384 C261.936,86.947 260.311,82.235 260.311,82.235 M237.398,119.934 C237.398,119.934 238.786,139.921 240.811,143.335 C242.186,145.653 258.686,160.29 260.961,177.785 L261.616,189.49 M299.536,123.861 C299.536,123.861 300.096,136.813 300.745,139.629" fill-opacity="0" stroke="#493B34" stroke-width="4" stroke-linecap="round" stroke-linejoin="round"/>
      <path d="M432.783,431.772 C431.862,431.772 431.116,428.862 431.116,425.272 C431.116,421.682 431.862,418.772 432.783,418.772 L454.282,418.772 C455.203,418.772 455.949,421.682 455.949,425.272 C455.949,428.862 455.203,431.772 454.282,431.772 L432.783,431.772" fill="#B4B5B4"/>
      <path d="M432.783,431.772 C431.862,431.772 431.116,428.862 431.116,425.272 C431.116,421.682 431.862,418.772 432.783,418.772 L454.282,418.772 C455.203,418.772 455.949,421.682 455.949,425.272 C455.949,428.862 455.203,431.772 454.282,431.772 L432.783,431.772 z M289.02,112.622 C289.02,112.622 303.964,127.949 304.183,129.612 C303.282,131.867 306.349,133.229 306.349,133.229 C306.349,133.229 280.137,163.972 276.67,167.872 C276.67,167.872 269.086,175.022 268.436,177.406 C267.786,179.79 266.053,186.939 266.053,186.939 L270.819,185.422 C270.819,185.422 270.387,194.739 272.553,195.606 C274.72,196.472 276.236,191.272 276.236,191.272 C276.236,191.272 285.337,188.022 286.203,187.372 C287.069,186.722 287.069,173.505 289.886,168.088 C289.886,168.088 322.386,141.656 324.986,138.838 C327.586,136.021 326.72,132.555 323.47,126.489 C320.22,120.421 292.27,85.539 288.803,83.589 C285.335,81.638 267.786,82.884 267.786,82.884" fill-opacity="0" stroke="#493B34" stroke-width="4" stroke-linecap="round" stroke-linejoin="round"/>
      <path d="M433.2,421.49 C433.2,421.49 434.571,424.938 432.886,429.172 C428.212,429.172 422.614,429.712 416.688,430.282 C409.813,430.943 402.607,431.637 395.706,431.637 C383.424,431.637 372.101,429.44 365.307,420.957 C357.707,411.469 357.551,396.043 364.829,373.793 C379.922,327.651 378.297,275.257 360.785,243.417 C333.865,194.466 302.151,199.921 301.832,199.977 L300.364,192.317 C301.888,192.023 337.995,185.793 367.62,239.659 C386.396,273.797 388.21,327.401 372.243,376.217 C365.936,395.498 365.65,408.911 371.394,416.081 C379.371,426.039 398.798,424.171 415.941,422.517 C422.058,421.928 427.837,421.372 432.886,421.372" fill="#E4E4E3"/>
      <path d="M433.2,421.49 C433.2,421.49 434.571,424.938 432.886,429.172 C428.212,429.172 422.614,429.712 416.688,430.282 C409.813,430.943 402.607,431.637 395.706,431.637 C383.424,431.637 372.101,429.44 365.307,420.957 C357.707,411.469 357.551,396.043 364.829,373.793 C379.922,327.651 378.297,275.257 360.785,243.417 C333.865,194.466 302.151,199.921 301.832,199.977 L300.364,192.317 C301.888,192.023 337.995,185.793 367.62,239.659 C386.396,273.797 388.21,327.401 372.243,376.217 C365.936,395.498 365.65,408.911 371.394,416.081 C379.371,426.039 398.798,424.171 415.941,422.517 C422.058,421.928 427.837,421.372 432.886,421.372 M90.1,411.161 C88.005,411.161 50.709,411.161 48.517,411.161 C46.324,411.161 45.866,407.009 48.1,405.795 L66.505,398.51 C66.505,398.51 70.224,397.014 75.695,397.014 C79.599,397.014 86.786,396.965 89.286,396.965 C91.786,396.965 95.099,397.858 97.342,399.32 L105.684,405.878 C107.851,407.711 107.112,411.161 105.017,411.161 C102.922,411.161 65.626,411.161 63.434,411.161 C61.241,411.161 60.783,407.009 63.017,405.795 L81.422,398.51 C81.422,398.51 84.964,396.966 89.286,396.965" fill-opacity="0" stroke="#493B34" stroke-width="4" stroke-linecap="round" stroke-linejoin="round"/>
      <path d="M540.523,425.877 C540.523,435.887 532.411,444 522.401,444 C512.393,444 504.28,435.887 504.28,425.877 C504.28,415.868 512.393,407.755 522.401,407.755 C532.411,407.755 540.523,415.868 540.523,425.877" fill="#777776"/>
      <path d="M540.523,425.877 C540.523,435.887 532.411,444 522.401,444 C512.393,444 504.28,435.887 504.28,425.877 C504.28,415.868 512.393,407.755 522.401,407.755 C532.411,407.755 540.523,415.868 540.523,425.877 z M209.163,66.573 C209.163,66.573 198.729,65.361 196.286,58.42 C193.844,51.48 194.934,19.652 212.031,8.137 C230.925,-4.587 236.966,7.366 236.966,7.366 C236.966,7.366 249.563,1.582 256.374,11.993 C263.247,22.496 265.036,36.92 265.036,36.92 M259.382,15.938 C259.382,15.938 263.425,12.985 268.135,15.988 C272.014,18.461 276.226,23.651 277.335,31.6 C278.671,41.172 276.677,61.748 276.767,63.376 C276.935,66.381 280.349,65.526 285.345,62.431 C285.345,62.431 278.382,71.354 274.37,71.535 C270.355,71.716 266.722,59.729 266.722,59.729 L264.969,53.75" fill-opacity="0" stroke="#493B34" stroke-width="4" stroke-linecap="round" stroke-linejoin="round"/>
    </g>
    <path d="M259.382,15.938 C259.382,15.938 263.425,12.985 268.135,15.988 C272.014,18.461 276.87,21.947 277.335,31.6 C277.798,41.253 276.677,61.748 276.767,63.376 C276.935,66.381 280.349,65.526 285.345,62.431 C285.345,62.431 278.382,71.354 274.37,71.535 C270.355,71.716 266.722,59.729 266.722,59.729" fill="#70422C"/>
    <path d="M276.767,63.376 C276.706,62.292 277.183,52.854 277.372,43.815 C273.053,34.729 265.483,30.222 260.977,31.304 C260.937,31.314 266.722,59.729 266.722,59.729 C266.722,59.729 270.355,71.716 274.37,71.535 C278.382,71.354 285.345,62.431 285.345,62.431 C280.349,65.526 276.935,66.381 276.767,63.376" fill="#543121"/>
    <path d="M261.074,396.823 C259.612,385.286 254.461,381.235 254.461,381.235 C254.461,381.235 233.336,389.36 229.599,394.884 C225.861,400.41 230.573,402.522 235.448,402.522 C240.323,402.522 280.461,401.059 289.561,399.597 C289.561,399.597 297.198,396.347 283.711,394.559 L261.074,396.823" fill="#D4BD91"/>
    <path d="M324.986,138.838 C327.586,136.021 326.72,132.555 323.47,126.489 C320.22,120.421 292.27,85.539 288.803,83.589 C285.335,81.638 267.786,82.884 267.786,82.884 C267.786,82.884 264.211,78.497 262.586,78.009 C260.961,77.522 257.224,79.147 257.224,79.147 L243.843,87.933 C243.843,87.933 239.674,94.747 239.836,96.697 C239.836,96.697 229.49,107.314 229.002,110.889 C228.515,114.464 230.519,161.186 230.303,169.172 C230.233,171.745 229.94,177.016 229.575,182.99 L242.666,181.993 C243.898,173.533 243.898,170.147 243.898,170.147 L247.202,150.106 L297.092,121.11 C300.657,124.956 304.079,128.823 304.183,129.612 C303.282,131.867 306.349,133.229 306.349,133.229 L324.986,138.838" fill="#EEADBD"/>
    <path d="M297.646,276.493 C297.646,276.493 300.493,308.387 290.104,355.939 L271.94,357.698 C273.928,330.89 273.725,281.618 273.725,281.618 L283.661,276.546 L297.646,276.493" fill="#669DC7"/>
    <path d="M297.646,276.493 L283.661,276.546 L273.725,281.618 C273.725,281.618 273.73,285.801 273.73,287.68 C279.226,287.831 290.371,289.731 298.003,294.265 C298.092,285.503 297.646,276.493 297.646,276.493" fill="#5681B5"/>
    <path d="M414.081,373.842 C411.077,374.858 408.203,376.416 406.236,378.797 C406.236,378.797 407.706,394.74 411.769,401.078 C415.831,407.415 423.141,404.406 426.873,396.184 C429.169,391.128 434.511,356.372 434.023,349.222 C433.536,342.072 424.599,341.91 419.724,352.472 L414.081,373.842" fill="#D4BD91"/>
    <path d="M410.863,375.595 C410.863,375.595 409.242,366.252 407.536,361.356 C406.548,358.521 399.165,348.74 390.012,337.293 L390.616,330.74 L401.407,325.281 C406.957,335.069 411.318,343.266 414.222,347.792 C419.209,355.567 421.401,352.689 424.436,355.072 C427.47,357.455 424.436,371.972 424.436,371.972 C424.436,371.972 416.777,371.284 410.863,375.595" fill="#FADCB4"/>
    <path d="M355.97,245.222 C355.97,245.222 362.653,264.388 364.909,270.151 C367.165,275.913 373.288,281.945 378.939,289.692 C387.643,301.622 395.255,314.429 401.407,325.281 L401.361,324.847 C397.786,331.672 388.956,338.346 388.956,338.346 C372.88,318.241 351.348,293 349.432,291.244 C346.426,288.488 328.398,263.259 328.398,263.259 L336.411,251.546 L355.97,245.222" fill="#669DC7"/>
    <path d="M355.97,245.222 L342.557,249.559 L334.532,254.293 L328.398,263.259 C328.398,263.259 336.533,274.451 340.218,279.512 C344.016,267.566 354.448,253.196 357.937,250.83 C357.157,248.61 355.97,245.222 355.97,245.222" fill="#5681B5"/>
    <path d="M310.036,151.838 C310.036,151.838 324.337,165.056 331.053,180.439 C337.77,195.822 355.97,245.222 355.97,245.222 C311.336,280.539 269.52,281.405 269.52,281.405 L261.807,192.989 L261.622,189.775 L260.961,177.785 C258.686,160.29 240.811,143.335 240.811,143.335 C240.383,141.622 239.673,136.899 239.011,132.141 L238.536,129.739 C238.536,129.739 272.119,114.356 283.386,114.139 L294.652,119.122 L299.536,123.861 C299.536,123.861 300.178,137.323 300.827,140.139 L310.036,151.838" fill="#FDE3A3"/>
    <path d="M334.559,188.899 C327.45,217.087 296.807,252.252 268.578,267.213 L269.52,281.405 C269.52,281.405 311.336,280.539 355.97,245.222 C355.97,245.222 342.61,208.961 334.559,188.899" fill="#ECD298"/>
    <path d="M261.448,397.647 C272.011,396.239 280.786,398.189 282.953,396.239 C285.12,394.289 283.386,387.789 282.953,383.455 C282.521,379.121 285.119,367.855 285.119,367.855 C286.24,363.993 287.269,360.243 288.21,356.606 L271.94,357.698 C271.391,365.116 270.673,370.814 269.736,373.272 C267.136,380.097 256.573,383.672 256.573,383.672 C256.573,383.672 260.822,391.221 261.448,397.647" fill="#FADCB4"/>
    <path d="M87.474,404.528 L78.529,396.984 L113.371,356.255 L122.314,363.798 L87.474,404.528" fill="#E4E4E3"/>
    <path d="M120.327,362.123 L115.358,357.931 L194.483,264.129 L199.452,268.321 L120.327,362.123" fill="#E4E4E3"/>
    <path d="M252.146,206.905 L247.349,204.897 C247.617,204.252 254.144,189.064 272.529,185.788 C289.162,182.823 296.298,183.783 296.591,183.823 C297.374,183.935 298.063,184.397 298.464,185.079 C298.865,185.759 298.935,186.587 298.652,187.326 L294.427,198.376 L289.57,196.518 L292.503,188.846 C289.065,188.866 282.876,189.225 273.442,190.907 C257.924,193.672 252.374,206.366 252.146,206.905" fill="#B4B5B4"/>
    <path d="M200.426,269.182 L193.51,263.268 L240.089,208.791 C240.628,208.16 245.593,202.546 252.82,201.207 L300.202,191.686 L301.995,200.608 L254.545,210.142 C250.396,210.911 247.041,214.664 247.009,214.701 L200.426,269.182" fill="#B4B5B4"/>
    <path d="M224.724,230.585 C224.724,230.585 225.518,236.475 226.301,237.494 C227.449,238.986 229.514,237.983 231.097,236.77 C232.2,235.924 237.014,230.565 237.611,228.897 C237.933,228.008 237.181,221.661 236.024,221.083 C234.868,220.504 228.884,228.088 228.884,228.088 C228.884,228.088 228.534,226.519 227.331,226.608 C226.128,226.696 224.962,229.923 224.962,229.923" fill="#FADCB4"/>
    <path d="M214.441,72.888 C214.441,72.888 209.811,72.482 205.991,68.339 C202.36,64.398 203.879,61.594 203.879,61.594 L206.086,59.514 L215.419,70.681 L214.441,72.888" fill="#FADCB4"/>
    <path d="M201.836,49.431 L205.419,41.014 L233.786,22.045 L259.854,38.45 C260.985,37.352 262.379,36.671 264.026,37.063 C270.271,38.55 267.892,53.269 260.606,58.473 C257.931,75.869 245.144,86.128 245.144,86.128 C245.144,86.128 236.661,88.188 226.56,83.599 C219.493,80.389 205.893,61.892 205.893,61.892 L201.836,49.431" fill="#FADCB4"/>
    <path d="M254.578,73.129 C254.578,73.129 259.005,84.741 261.316,86.619 L260.961,89.384 C259.986,91.822 256.248,105.96 256.736,109.697 L250.724,100.272 C250.724,97.382 246.191,87.271 246.191,87.271 L245.324,85.073 L254.578,73.129" fill="#FADCB4"/>
    <path d="M221.474,232.384 C221.148,233.684 224.236,232.222 224.886,229.947 C225.536,227.672 226.349,221.822 226.349,221.822 C226.349,221.822 231.549,218.735 234.799,214.509 C236.701,212.036 237.724,208.335 237.724,208.335 C240.938,193.613 242.478,183.878 243.216,177.92 C238.37,175.116 229.951,180.277 229.951,180.277 L229.727,180.469 C228.956,193.421 227.702,211.422 227.702,211.422 C227.702,211.422 221.961,217.11 221.474,219.059 C220.986,221.009 221.799,231.085 221.474,232.384" fill="#FADCB4"/>
    <path d="M451.365,435.141 L451.365,414.592 C451.365,414.592 466.654,387.597 497.61,384.373 C528.566,381.151 543.474,396.057 546.911,407.743 L546.911,435.546 C546.911,435.546 546.911,439.573 539.269,439.573 C531.624,439.573 467.449,439.573 462.449,439.573 C457.449,439.573 451.365,435.141 451.365,435.141" fill="#F5ED6D"/>
    <path d="M90.1,411.161 C88.005,411.161 50.709,411.161 48.517,411.161 C46.324,411.161 45.866,407.009 48.1,405.795 L66.505,398.51 C66.505,398.51 70.796,396.639 75.695,397.014 L86.851,397.014" fill="#B4B5B4"/>
    <path d="M63.017,405.795 L81.422,398.51 C81.422,398.51 90.517,394.545 97.342,399.32 L105.684,405.878 C107.851,407.711 107.112,411.161 105.017,411.161 C102.922,411.161 65.626,411.161 63.434,411.161 C61.241,411.161 60.783,407.009 63.017,405.795" fill="#B4B5B4"/>
    <path d="M324.986,138.838 C323.987,139.921 318.574,144.489 312.286,149.705 L297.155,144.002 C302.29,137.99 306.349,133.229 306.349,133.229 C306.349,133.229 319.523,131.937 324.986,138.838" fill="#EEADBD"/>
    <path d="M314.264,147.983 C309.622,142.568 298.336,142.739 298.336,142.739 L298.024,142.984 C290.029,152.347 278.851,165.419 276.67,167.872 C276.67,167.872 269.086,175.022 268.436,177.406 C267.786,179.79 266.053,186.939 266.053,186.939 L270.819,185.422 C270.819,185.422 270.387,194.739 272.553,195.606 C274.72,196.472 276.236,191.272 276.236,191.272 C276.236,191.272 285.337,188.022 286.203,187.372 C287.069,186.722 287.069,173.505 289.886,168.088 C289.886,168.088 303.871,156.714 314.228,148.093 L314.264,147.983" fill="#FADCB4"/>
    <path d="M254.822,74.369 C254.822,74.369 253.461,78.875 248.963,83.892 C248.032,84.93 245.144,86.128 245.144,86.128 L249.655,96.175 C249.655,96.175 256.946,82.516 256.921,79.566 L254.822,74.369" fill="#F2B290"/>
    <path d="M262.711,40.514 C262.711,40.514 258.586,45.264 259.086,50.139 C259.586,55.014 263.646,49.498 264.461,46.389 C265.836,41.139 264.961,39.264 262.711,40.514" fill="#F2B290"/>
    <path d="M245.978,126.307 C244.896,122.078 243.52,109.688 243.52,109.688 L242.111,113.272 C242.111,113.272 239.998,98.647 239.836,96.697 L237.959,98.653 C237.959,98.653 240.569,121.391 242.34,127.88 L246.445,126.31" fill="#DFCD9C"/>
    <path d="M276.855,82.745 C276.855,82.745 280.593,109.197 282.067,114.213 L277.839,114.9 C276.364,109.885 272.43,82.745 272.43,82.745 L276.855,82.745" fill="#DFCD9C"/>
    <path d="M61.75,357.385 C66.809,357.385 70.911,361.487 70.911,366.546 C70.911,361.487 75.015,357.385 80.071,357.385 C75.015,357.385 70.911,353.285 70.911,348.225 C70.911,353.285 66.809,357.385 61.75,357.385" fill="#DFF2F7"/>
    <path d="M61.75,357.385 C66.809,357.385 70.911,361.487 70.911,366.546 C70.911,361.487 75.015,357.385 80.071,357.385 C75.015,357.385 70.911,353.285 70.911,348.225 C70.911,353.285 66.809,357.385 61.75,357.385 z" fill-opacity="0" stroke="#A0D0E5" stroke-width="1.5" stroke-linecap="round" stroke-linejoin="round"/>
    <path d="M0.75,400.385 C5.809,400.385 9.911,404.487 9.911,409.546 C9.911,404.487 14.015,400.385 19.071,400.385 C14.015,400.385 9.911,396.285 9.911,391.225 C9.911,396.285 5.809,400.385 0.75,400.385" fill="#DFF2F7"/>
    <path d="M0.75,400.385 C5.809,400.385 9.911,404.487 9.911,409.546 C9.911,404.487 14.015,400.385 19.071,400.385 C14.015,400.385 9.911,396.285 9.911,391.225 C9.911,396.285 5.809,400.385 0.75,400.385 z" fill-opacity="0" stroke="#A0D0E5" stroke-width="1.5" stroke-linecap="round" stroke-linejoin="round"/>
    <path d="M157.509,417.635 C162.567,417.635 166.67,421.737 166.67,426.796 C166.67,421.737 170.773,417.635 175.83,417.635 C170.773,417.635 166.67,413.535 166.67,408.475 C166.67,413.535 162.567,417.635 157.509,417.635" fill="#DFF2F7"/>
    <path d="M157.509,417.635 C162.567,417.635 166.67,421.737 166.67,426.796 C166.67,421.737 170.773,417.635 175.83,417.635 C170.773,417.635 166.67,413.535 166.67,408.475 C166.67,413.535 162.567,417.635 157.509,417.635 z" fill-opacity="0" stroke="#A0D0E5" stroke-width="1.5" stroke-linecap="round" stroke-linejoin="round"/>
    <path d="M191.969,389.435 C197.027,389.435 201.13,393.537 201.13,398.595 C201.13,393.537 205.233,389.435 210.29,389.435 C205.233,389.435 201.13,385.335 201.13,380.275 C201.13,385.335 197.027,389.435 191.969,389.435" fill="#DFF2F7"/>
    <path d="M191.969,389.435 C197.027,389.435 201.13,393.537 201.13,398.595 C201.13,393.537 205.233,389.435 210.29,389.435 C205.233,389.435 201.13,385.335 201.13,380.275 C201.13,385.335 197.027,389.435 191.969,389.435 z" fill-opacity="0" stroke="#A0D0E5" stroke-width="1.5" stroke-linecap="round" stroke-linejoin="round"/>
    <path d="M130.026,389.435 C135.085,389.435 139.188,393.537 139.188,398.595 C139.188,393.537 143.291,389.435 148.348,389.435 C143.291,389.435 139.188,385.335 139.188,380.275 C139.188,385.335 135.085,389.435 130.026,389.435" fill="#DFF2F7"/>
    <path d="M130.026,389.435 C135.085,389.435 139.188,393.537 139.188,398.595 C139.188,393.537 143.291,389.435 148.348,389.435 C143.291,389.435 139.188,385.335 139.188,380.275 C139.188,385.335 135.085,389.435 130.026,389.435 z" fill-opacity="0" stroke="#A0D0E5" stroke-width="1.5" stroke-linecap="round" stroke-linejoin="round"/>
    <path d="M209.849,66.733 C209.849,66.733 198.666,65.736 196.224,58.795 C193.781,51.855 194.934,19.652 212.031,8.137 C230.925,-4.587 236.966,7.366 236.966,7.366 C236.966,7.366 249.563,1.582 256.374,11.993 C263.247,22.496 265.036,36.92 265.036,36.92 L264.026,37.063 C258.962,35.857 256.295,44.794 256.295,44.794 L256.231,44.18 C252.536,35.921 233.911,27.045 233.911,27.045 C233.911,27.045 210.161,37.421 206.536,62.67" fill="#70422C"/>
    <path d="M195.486,49.479 C195.486,49.479 200.691,58.205 207.274,57.899 L206.662,62.186 L209.112,66.319 C209.112,66.319 200.691,66.166 197.629,61.573 C194.568,56.981 195.486,49.479 195.486,49.479" fill="#543121"/>
    <path d="M272.286,349.358 L291.729,347.707 L290.304,356.606 L271.429,357.858 L272.286,349.358" fill="#C3DDEA"/>
    <path d="M383.795,332.071 C383.795,332.071 393.751,325.382 397.227,319.012 L401.161,324.847 C401.161,324.847 395.934,334.997 388.713,338.043 L383.795,332.071" fill="#C3DDEA"/>
    <path d="M239.651,52.196 C240.706,54.865 240.49,57.452 239.166,57.974 C237.844,58.499 235.918,56.759 234.861,54.09 C233.808,51.422 234.024,48.836 235.347,48.314 C236.669,47.789 238.596,49.528 239.651,52.196" fill="#37312A"/>
    <path d="M219.711,62.774 C221.506,64.947 222.236,67.305 221.343,68.044 C220.451,68.782 218.271,67.62 216.476,65.448 C214.681,63.277 213.95,60.918 214.844,60.181 C215.737,59.441 217.917,60.604 219.711,62.774" fill="#37312A"/>
    <path d="M251.582,54.912 C252.247,56.551 250.601,58.95 247.904,60.267 C245.209,61.586 242.485,61.327 241.82,59.687 C241.155,58.047 242.802,55.648 245.497,54.33 C248.192,53.011 250.917,53.271 251.582,54.912" fill="#EA8E91"/>
    <path d="M223.612,71.696 C224.231,73.221 222.699,75.453 220.191,76.678 C219.73,76.904 219.268,77.08 218.817,77.208 C218.169,77.264 215.253,73.764 215.376,73.128 C215.999,72.377 216.887,71.675 217.951,71.154 C220.458,69.928 222.994,70.169 223.612,71.696" fill="#EA8E91"/>
    <g>
      <path d="M451.365,434.046 C451.365,431.285 451.365,419.759 451.365,416.379 C451.365,413 466.654,387.597 497.61,384.373 C528.566,381.151 543.474,396.057 546.911,407.743 L546.911,435.546 C546.911,435.546 546.911,439.573 539.269,439.573 C531.624,439.573 467.449,439.573 462.449,439.573 C457.449,439.573 451.365,438.046 451.365,434.046 z M539.744,395.98 C532.115,392.639 523.014,390.883 510.245,392.213 C494.235,393.879 478.624,401.906 469.995,409.267 C468.763,410.319 466.245,412.361 462.078,412.361 C457.911,412.361 453.578,412.361 453.578,412.361 M263.078,208.773 L269.52,281.405 C269.52,281.405 311.336,280.539 355.97,245.222 C355.97,245.222 337.77,195.822 331.053,180.439 C324.337,165.056 310.036,151.838 310.036,151.838 M261.908,195.573 L262.243,199.362 M273.725,281.618 C273.725,281.618 274.056,361.932 269.736,373.272 C267.136,380.097 256.573,383.672 256.573,383.672 M288.21,356.606 C287.269,360.243 286.24,363.993 285.119,367.855 C285.119,367.855 282.521,379.121 282.953,383.455 C283.386,387.789 285.12,394.289 282.953,396.239 C280.786,398.189 272.011,396.239 261.448,397.647 M297.646,276.493 C297.646,276.493 300.493,308.387 290.104,355.939 L272.286,357.858 M272.786,349.358 L291.729,347.707 M261.448,397.647 C259.986,386.11 254.461,381.235 254.461,381.235 C254.461,381.235 233.336,389.36 229.599,394.884 C225.861,400.41 230.573,402.522 235.448,402.522 C240.323,402.522 280.461,401.059 289.561,399.597 C289.561,399.597 297.198,396.347 283.711,394.559 M390.286,337.546 C399.439,348.993 406.548,358.521 407.536,361.356 C409.242,366.252 410.745,374.963 410.745,374.963 M328.398,263.259 C328.398,263.259 346.426,288.488 349.432,291.244 C351.348,293 372.88,318.241 388.956,338.346 C388.956,338.346 397.586,332.058 401.161,325.233 M355.97,245.222 C355.97,245.222 362.653,264.388 364.909,270.151 C367.165,275.913 373.288,281.945 378.939,289.692 C395.493,312.382 408.101,338.25 414.222,347.792 C419.209,355.567 421.401,352.689 424.436,355.072 C427.47,357.455 424.436,371.972 424.436,371.972 M427.523,371.972 C427.523,371.972 412.411,371.322 406.236,378.797 C406.236,378.797 407.706,394.74 411.769,401.078 C415.831,407.415 423.141,404.406 426.873,396.184 C429.169,391.128 434.511,356.372 434.023,349.222 C433.536,342.072 424.599,341.91 419.724,352.472 M383.795,332.071 C383.795,332.071 394.444,324.132 396.72,318.607 M78.529,396.984 L113.371,356.255 L122.314,363.798 L93.42,397.577 M120.327,362.123 L115.358,357.931 L194.483,264.129 L199.452,268.321 L120.327,362.123 z M270.932,191.46 C264.079,193.269 259.419,197.043 256.453,200.409 M290.698,193.568 L292.503,188.846 C290.016,188.86 286.089,189.052 280.534,189.795 M286.909,183.886 C293.408,183.394 296.403,183.797 296.591,183.823 C297.374,183.935 298.063,184.397 298.464,185.079 C298.865,185.759 298.935,186.587 298.652,187.326 L296.7,192.432 M248.58,202.492 C251.11,198.121 257.761,189.105 270.799,186.138 M227.07,238.02 L200.426,269.182 L193.51,263.268 L221.474,230.561 M225.913,225.37 L240.089,208.791 C240.628,208.16 245.593,202.546 252.82,201.207 L300.202,191.686 L301.995,200.608 L254.545,210.142 C250.396,210.911 247.041,214.664 247.009,214.701 L237.475,225.852 M247.036,150.921 L243.898,170.147 C243.898,170.147 243.898,180.059 237.724,208.335 C237.724,208.335 236.701,212.036 234.799,214.509 C231.549,218.735 226.349,221.822 226.349,221.822 C226.349,221.822 225.536,227.672 224.886,229.947 C224.236,232.222 221.148,233.684 221.474,232.384 C221.799,231.085 220.986,221.009 221.474,219.059 C221.961,217.11 227.702,211.422 227.702,211.422 C227.702,211.422 230.086,177.188 230.303,169.172 C230.519,161.186 228.515,114.464 229.002,110.889 C229.49,107.314 239.836,96.697 239.836,96.697 M224.962,229.923 C224.962,229.923 226.128,226.696 227.331,226.608 C228.534,226.519 228.884,228.088 228.884,228.088 C228.884,228.088 234.868,220.504 236.024,221.083 C237.181,221.661 237.933,228.008 237.611,228.897 C237.014,230.565 232.2,235.924 231.097,236.77 C229.514,237.983 227.449,238.986 226.301,237.494 C225.518,236.475 224.724,230.585 224.724,230.585 M245.606,86.102 C245.606,86.102 236.661,88.188 226.56,83.599 C219.493,80.389 206.349,62.42 206.349,62.42 M256.295,44.794 C256.295,44.794 258.962,35.857 264.026,37.063 C270.271,38.55 267.892,53.269 260.606,58.473 C259.626,64.849 256.99,70.877 254.419,75.181 M204.013,65.361 C204.279,66.431 204.63,66.86 205.991,68.339 C209.811,72.482 214.441,72.888 214.441,72.888 M229.441,65.861 L228.149,69.463 L232.066,71.736" fill-opacity="0" stroke="#493B34" stroke-width="1.6" stroke-linecap="round" stroke-linejoin="round"/>
      <path d="M206.821,55.644 C206.821,55.644 207.907,51.518 213.553,52.604 M229.133,44.961 C229.133,44.961 231.794,39.575 237.44,40.443 M263.814,39.956 C263.814,39.956 259.373,42.879 259.156,48.839 M256.231,44.18 C252.536,35.921 233.911,27.045 233.911,27.045 C233.911,27.045 210.161,37.421 206.536,62.67" fill-opacity="0" stroke="#493B34" stroke-width="1.6" stroke-linecap="round" stroke-linejoin="round"/>
    </g>
    <path d="M237.545,75.515 C237.545,75.515 243.591,72.492 246.614,66.824 C246.614,66.824 252.092,73.626 248.314,80.049" fill-opacity="0" stroke="#E0573B" stroke-width="1.5" stroke-linecap="round" stroke-linejoin="round"/>
    <path d="M254.798,74.612 C254.798,74.612 258.787,84.48 261.099,86.358 M245.578,86.212 C245.578,86.212 250.724,97.382 250.724,100.272 L256.736,109.697 M257.224,79.147 C257.224,79.147 260.961,77.522 262.586,78.009 C264.211,78.497 267.786,82.884 267.786,82.884 C267.786,82.884 274.773,101.41 274.448,104.009 C274.448,104.009 263.886,96.372 260.148,96.697 M245.161,86.795 C245.161,86.795 239.674,94.747 239.836,96.697 C239.998,98.647 242.111,113.272 242.111,113.272 L246.498,101.41 M242.111,98.647 C242.111,98.647 249.586,101.735 256.736,109.697 C256.248,105.96 259.986,91.822 260.961,89.384 C261.936,86.947 260.311,82.235 260.311,82.235 M237.398,119.934 C237.398,119.934 238.786,139.921 240.811,143.335 C242.186,145.653 258.686,160.29 260.961,177.785 L261.616,189.49" fill-opacity="0" stroke="#493B34" stroke-width="1.6" stroke-linecap="round" stroke-linejoin="round"/>
    <path d="M232.523,115.384 L238.319,129.089" fill-opacity="0" stroke="#493B34" stroke-width="1.3" stroke-linecap="round" stroke-linejoin="round"/>
    <path d="M238.536,129.739 C238.536,129.739 272.119,114.356 283.386,114.139 L294.652,119.122 M299.536,123.861 C299.536,123.861 300.096,136.813 300.745,139.629 M229.951,180.277 C229.951,180.277 238.46,175.056 243.294,177.957" fill-opacity="0" stroke="#493B34" stroke-width="1.6" stroke-linecap="round" stroke-linejoin="round"/>
    <path d="M237.959,98.653 C237.959,98.653 240.569,121.391 242.34,127.88 M243.52,109.688 C243.52,109.688 244.896,122.078 245.978,126.307" fill-opacity="0" stroke="#493B34" stroke-width="1.3" stroke-linecap="round" stroke-linejoin="round"/>
    <path d="M432.783,431.772 C431.862,431.772 431.116,428.862 431.116,425.272 C431.116,421.682 431.862,418.772 432.783,418.772 L454.282,418.772 C455.203,418.772 455.949,421.682 455.949,425.272 C455.949,428.862 455.203,431.772 454.282,431.772 L432.783,431.772" fill="#B4B5B4"/>
    <path d="M432.783,431.772 C431.862,431.772 431.116,428.862 431.116,425.272 C431.116,421.682 431.862,418.772 432.783,418.772 L454.282,418.772 C455.203,418.772 455.949,421.682 455.949,425.272 C455.949,428.862 455.203,431.772 454.282,431.772 L432.783,431.772 z M289.02,112.622 C289.02,112.622 303.964,127.949 304.183,129.612 C303.282,131.867 306.349,133.229 306.349,133.229 C306.349,133.229 280.137,163.972 276.67,167.872 C276.67,167.872 269.086,175.022 268.436,177.406 C267.786,179.79 266.053,186.939 266.053,186.939 L270.819,185.422 C270.819,185.422 270.387,194.739 272.553,195.606 C274.72,196.472 276.236,191.272 276.236,191.272 C276.236,191.272 285.337,188.022 286.203,187.372 C287.069,186.722 287.069,173.505 289.886,168.088 C289.886,168.088 322.386,141.656 324.986,138.838 C327.586,136.021 326.72,132.555 323.47,126.489 C320.22,120.421 292.27,85.539 288.803,83.589 C285.335,81.638 267.786,82.884 267.786,82.884 M298.336,142.739 C298.336,142.739 309.622,142.568 314.264,147.983" fill-opacity="0" stroke="#493B34" stroke-width="1.6" stroke-linecap="round" stroke-linejoin="round"/>
    <path d="M306.349,133.229 C306.349,133.229 314.694,127.464 318.161,128.764 M272.43,82.745 C272.43,82.745 276.364,109.885 277.839,114.9 M276.855,82.745 C276.855,82.745 280.593,109.197 282.067,114.213" fill-opacity="0" stroke="#493B34" stroke-width="1.3" stroke-linecap="round" stroke-linejoin="round"/>
    <path d="M433.2,421.49 C433.2,421.49 434.571,424.938 432.886,429.172 C428.212,429.172 422.614,429.712 416.688,430.282 C409.813,430.943 402.607,431.637 395.706,431.637 C383.424,431.637 372.101,429.44 365.307,420.957 C357.707,411.469 357.551,396.043 364.829,373.793 C379.922,327.651 378.297,275.257 360.785,243.417 C333.865,194.466 302.151,199.921 301.832,199.977 L300.364,192.317 C301.888,192.023 337.995,185.793 367.62,239.659 C386.396,273.797 388.21,327.401 372.243,376.217 C365.936,395.498 365.65,408.911 371.394,416.081 C379.371,426.039 398.798,424.171 415.941,422.517 C422.058,421.928 427.837,421.372 432.886,421.372" fill="#E4E4E3"/>
    <path d="M433.2,421.49 C433.2,421.49 434.571,424.938 432.886,429.172 C428.212,429.172 422.614,429.712 416.688,430.282 C409.813,430.943 402.607,431.637 395.706,431.637 C383.424,431.637 372.101,429.44 365.307,420.957 C357.707,411.469 357.551,396.043 364.829,373.793 C379.922,327.651 378.297,275.257 360.785,243.417 C333.865,194.466 302.151,199.921 301.832,199.977 L300.364,192.317 C301.888,192.023 337.995,185.793 367.62,239.659 C386.396,273.797 388.21,327.401 372.243,376.217 C365.936,395.498 365.65,408.911 371.394,416.081 C379.371,426.039 398.798,424.171 415.941,422.517 C422.058,421.928 427.837,421.372 432.886,421.372 M90.1,411.161 C88.005,411.161 50.709,411.161 48.517,411.161 C46.324,411.161 45.866,407.009 48.1,405.795 L66.505,398.51 C66.505,398.51 70.224,397.014 75.695,397.014 C79.599,397.014 86.786,396.965 89.286,396.965 C91.786,396.965 95.099,397.858 97.342,399.32 L105.684,405.878 C107.851,407.711 107.112,411.161 105.017,411.161 C102.922,411.161 65.626,411.161 63.434,411.161" fill-opacity="0" stroke="#493B34" stroke-width="1.6" stroke-linecap="round" stroke-linejoin="round"/>
    <g>
      <path d="M63.434,411.161 C61.241,411.161 60.783,407.009 63.017,405.795 L81.422,398.51 C81.422,398.51 84.964,396.966 89.286,396.965" fill-opacity="0" stroke="#493B34" stroke-width="1.3" stroke-linecap="round" stroke-linejoin="round"/>
      <path d="M455.911,426.796 L547.161,426.796" fill-opacity="0" stroke="#493B34" stroke-width="1.6" stroke-linecap="round" stroke-linejoin="round"/>
    </g>
    <path d="M540.523,425.877 C540.523,435.887 532.411,444 522.401,444 C512.393,444 504.28,435.887 504.28,425.877 C504.28,415.868 512.393,407.755 522.401,407.755 C532.411,407.755 540.523,415.868 540.523,425.877" fill="#777776"/>
    <g>
      <path d="M540.523,425.877 C540.523,435.887 532.411,444 522.401,444 C512.393,444 504.28,435.887 504.28,425.877 C504.28,415.868 512.393,407.755 522.401,407.755 C532.411,407.755 540.523,415.868 540.523,425.877 z" fill-opacity="0" stroke="#493B34" stroke-width="1.6" stroke-linecap="round" stroke-linejoin="round"/>
      <path d="M535.464,425.877 C535.464,433.092 529.616,438.94 522.401,438.94 C515.187,438.94 509.34,433.092 509.34,425.877 C509.34,418.663 515.187,412.815 522.401,412.815 C529.616,412.815 535.464,418.663 535.464,425.877 z" fill-opacity="0" stroke="#493B34" stroke-width="1.3" stroke-linecap="round" stroke-linejoin="round"/>
      <path d="M209.163,66.573 C209.163,66.573 198.729,65.361 196.286,58.42 C193.844,51.48 194.934,19.652 212.031,8.137 C230.925,-4.587 236.966,7.366 236.966,7.366 C236.966,7.366 249.563,1.582 256.374,11.993 C263.247,22.496 265.036,36.92 265.036,36.92 M259.382,15.938 C259.382,15.938 263.425,12.985 268.135,15.988 C272.014,18.461 276.226,23.651 277.335,31.6 C278.671,41.172 276.677,61.748 276.767,63.376 C276.935,66.381 280.349,65.526 285.345,62.431 C285.345,62.431 278.382,71.354 274.37,71.535 C270.355,71.716 266.722,59.729 266.722,59.729 L264.969,53.75" fill-opacity="0" stroke="#493B34" stroke-width="1.6" stroke-linecap="round" stroke-linejoin="round"/>
    </g>
  </g>
</svg>
