<?xml version="1.0" encoding="utf-8"?>
<!-- Generator: Adobe Illustrator 16.0.0, SVG Export Plug-In . SVG Version: 6.00 Build 0)  -->
<!DOCTYPE svg PUBLIC "-//W3C//DTD SVG 1.1//EN" "http://www.w3.org/Graphics/SVG/1.1/DTD/svg11.dtd">
<svg version="1.1" id="Layer_1" xmlns="http://www.w3.org/2000/svg" xmlns:xlink="http://www.w3.org/1999/xlink" x="0px" y="0px"
	 width="190px" height="220px" viewBox="0 0 190 220" enable-background="new 0 0 190 220" xml:space="preserve">
<g>
	<defs>
		<rect id="SVGID_1_" x="-55" y="-40" width="300" height="300"/>
	</defs>
	<clipPath id="SVGID_2_">
		<use xlink:href="#SVGID_1_"  overflow="visible"/>
	</clipPath>
	<path clip-path="url(#SVGID_2_)" fill="#EDF1F9" d="M15,195h160c2.998,0,5-2.002,5-5V15c0-3-2.002-5-5-5H15c-3,0-5,2-5,5v175
		C10,192.998,12,195,15,195"/>
	<path clip-path="url(#SVGID_2_)" fill="#005163" d="M175,0H15C6.499,0,0,6.499,0,15v175c0,8.501,6.499,15,15,15v10c0,2.998,2,5,5,5
		h150c2.998,0,5-2.002,5-5v-10c8.501,0,15-6.499,15-15V15C190,6.499,183.501,0,175,0 M165,210H25v-5h140V210z M180,190
		c0,2.998-2.002,5-5,5H15c-3,0-5-2.002-5-5V15c0-3,2-5,5-5h160c2.998,0,5,2,5,5V190z"/>
	<path clip-path="url(#SVGID_2_)" fill="#014463" d="M25,25c2.759,0,5,2.241,5,5s-2.241,5-5,5s-5-2.241-5-5S22.241,25,25,25"/>
	<path clip-path="url(#SVGID_2_)" fill="#014463" d="M45,25c2.759,0,5,2.241,5,5s-2.241,5-5,5s-5-2.241-5-5S42.241,25,45,25"/>
	<path clip-path="url(#SVGID_2_)" fill="#014463" d="M145,25c2.759,0,5,2.241,5,5s-2.241,5-5,5s-5-2.241-5-5S142.241,25,145,25"/>
	<path clip-path="url(#SVGID_2_)" fill="#014463" d="M165,25c2.759,0,5,2.241,5,5s-2.241,5-5,5s-5-2.241-5-5S162.241,25,165,25"/>
	<rect x="30" y="60" clip-path="url(#SVGID_2_)" fill="#7DD8FF" width="130" height="115"/>
	<path clip-path="url(#SVGID_2_)" fill="#005163" d="M165,185H25c-3,0-5-2.002-5-5V55c0-3,2-5,5-5h140c2.998,0,5,2,5,5v125
		C170,182.998,167.998,185,165,185 M30,175h130V60H30V175z"/>
	<path clip-path="url(#SVGID_2_)" fill="#90CEF1" d="M125,120c11.045,0,20,8.955,20,20s-8.955,20-20,20s-20-8.955-20-20
		S113.955,120,125,120"/>
	<path clip-path="url(#SVGID_2_)" fill="#3689C9" d="M125,170c-16.499,0-30-13.501-30-30s13.501-30,30-30s30,13.501,30,30
		S141.499,170,125,170 M125,120c-11.001,0-20,8.999-20,20s8.999,20,20,20s20-8.999,20-20S136.001,120,125,120"/>
	<path clip-path="url(#SVGID_2_)" fill="#409EFF" d="M95,90c-3,0-5-2-5-5V75c0-3,2-5,5-5c2.998,0,5,2,5,5v10C100,88,97.998,90,95,90
		"/>
	<path clip-path="url(#SVGID_2_)" fill="#409EFF" d="M120,90c-2.002,0-3.501-1.001-4.502-3l-5-10c-0.996-2.5,0-5.5,2.002-6.499
		c2.5-1.001,5.498,0,6.499,2l5,10c1.001,2.5,0,5.5-1.997,6.499C121.499,90,121.001,90,120,90"/>
	<path clip-path="url(#SVGID_2_)" fill="#409EFF" d="M70,90c-0.5,0-1.499,0-2-0.5c-2.5-0.999-3.501-3.999-2-6.499l5-10
		C72,70.5,75,69.5,77.5,71.001C80,72,81.001,75,79.5,77.5l-5,10C73.501,88.999,72,90,70,90"/>
	<rect x="30" y="60" clip-path="url(#SVGID_2_)" fill="#4C9CD6" width="130" height="5"/>
	<rect x="30" y="160" clip-path="url(#SVGID_2_)" fill="#3689C9" width="130" height="10"/>
	<path clip-path="url(#SVGID_2_)" fill="#48A8E5" d="M141.499,128.501c-3.501-5-9.502-8.501-16.499-8.501
		c-2.5,0-4.502,0.498-7.002,1.001c-7.5,2.998-12.998,10-12.998,18.999c0,11.001,8.999,20,20,20h1.001
		c2.5-4.502,3.999-9.502,3.999-15c0-7.002-2.5-13.501-6.499-18.999c1.997-0.503,4.497-1.001,6.499-1.001
		C133.999,125,137.998,126.499,141.499,128.501"/>
	<path clip-path="url(#SVGID_2_)" fill="#95DCF1" d="M95,120c11.045,0,20,8.955,20,20s-8.955,20-20,20s-20-8.955-20-20
		S83.955,120,95,120"/>
	<path clip-path="url(#SVGID_2_)" fill="#3689C9" d="M95,170c-16.499,0-30-13.501-30-30s13.501-30,30-30s30,13.501,30,30
		S111.499,170,95,170 M95,120c-11.001,0-20,8.999-20,20s8.999,20,20,20s20-8.999,20-20S106.001,120,95,120"/>
	<path clip-path="url(#SVGID_2_)" fill="#48A8E5" d="M111.499,128.501c-3.501-5-9.502-8.501-16.499-8.501
		c-2.5,0-4.502,0.498-7.002,1.001C80.498,123.999,75,131.001,75,140c0,11.001,8.999,20,20,20h1.001c2.5-4.502,3.999-9.502,3.999-15
		c0-7.002-2.5-13.501-6.501-18.999c2-0.503,4.5-1.001,6.501-1.001C103.999,125,107.998,126.499,111.499,128.501"/>
	<path clip-path="url(#SVGID_2_)" fill="#90CEF1" d="M65,120c11.045,0,20,8.955,20,20s-8.955,20-20,20s-20-8.955-20-20
		S53.955,120,65,120"/>
	<path clip-path="url(#SVGID_2_)" fill="#3689C9" d="M65,170c-16.499,0-30-13.501-30-30s13.501-30,30-30s30,13.501,30,30
		S81.499,170,65,170 M65,120c-11.001,0-20,8.999-20,20s8.999,20,20,20s20-8.999,20-20S76.001,120,65,120"/>
	<path clip-path="url(#SVGID_2_)" fill="#48A8E5" d="M50,145c0-11.001,8.999-20,20-20c3.999,0,8,1.499,11.499,3.501
		C78,123.501,72,120,65,120c-11.001,0-20,8.999-20,20c0,7.002,3.501,12.998,8.501,16.499C51.499,152.998,50,148.999,50,145"/>
	<path clip-path="url(#SVGID_2_)" fill="#409EFF" d="M60,95c2.759,0,5,2.241,5,5s-2.241,5-5,5s-5-2.241-5-5S57.241,95,60,95"/>
	<path clip-path="url(#SVGID_2_)" fill="#409EFF" d="M95,95c2.759,0,5,2.241,5,5s-2.241,5-5,5s-5-2.241-5-5S92.241,95,95,95"/>
	<path clip-path="url(#SVGID_2_)" fill="#409EFF" d="M130,95c2.759,0,5,2.241,5,5s-2.241,5-5,5s-5-2.241-5-5S127.241,95,130,95"/>
	<path clip-path="url(#SVGID_2_)" fill="#EBE1B6" d="M15,195h160c2.998,0,5-2.002,5-5V15c0-3-2.002-5-5-5v175c0,2.998-2.002,5-5,5
		H10C10,192.998,12,195,15,195"/>
	<path clip-path="url(#SVGID_2_)" fill="#014463" d="M115,35H75c-3,0-5-2-5-5s2-5,5-5h40c2.998,0,5,2,5,5S117.998,35,115,35"/>
</g>
</svg>
